<?xml version="1.0" standalone="no"?>
<!DOCTYPE svg PUBLIC "-//W3C//DTD SVG 20010904//EN"
 "http://www.w3.org/TR/2001/REC-SVG-20010904/DTD/svg10.dtd">
<svg version="1.0" xmlns="http://www.w3.org/2000/svg"
 width="466.000000pt" height="615.000000pt" viewBox="0 0 466.000000 615.000000"
 preserveAspectRatio="xMidYMid meet">
<metadata>
Created by potrace 1.16, written by Peter Selinger 2001-2019
</metadata>
<g transform="translate(0.000000,615.000000) scale(0.100000,-0.100000)"
fill="#000000" stroke="none">
<path d="M0 3075 c0 -2727 2 -3075 15 -3075 13 0 15 146 15 1253 l0 1252 43
-3 c23 -2 58 0 77 5 32 9 31 9 -43 28 l-77 19 0 71 0 72 51 23 c61 29 89 62
89 105 0 22 23 73 66 151 77 138 92 160 154 234 26 30 82 107 125 170 113 166
155 217 196 234 54 22 141 36 299 46 95 6 169 16 212 30 69 21 157 79 218 145
58 62 236 175 275 175 40 0 5 26 -102 77 -73 34 -145 60 -188 68 l-70 13 85 1
c71 1 94 -3 138 -24 76 -35 149 -55 202 -55 50 0 135 25 161 46 8 8 22 14 30
14 16 0 58 20 130 63 25 15 84 39 130 53 75 23 97 25 209 22 113 -4 130 -7
179 -32 45 -23 58 -26 78 -17 14 6 28 9 33 6 4 -3 41 -11 82 -19 101 -20 275
-74 318 -99 19 -12 74 -58 122 -104 47 -46 93 -83 102 -83 21 0 28 15 17 42
-16 43 -23 100 -12 93 6 -3 11 -15 11 -26 0 -10 4 -19 8 -19 5 0 12 46 15 103
6 102 20 172 36 182 5 2 6 -33 4 -79 -6 -96 4 -236 18 -236 5 0 9 51 9 113 0
116 8 187 19 187 4 0 15 -67 24 -149 29 -273 57 -312 264 -379 181 -59 211
-64 368 -64 110 0 157 5 220 21 75 20 189 72 247 112 14 11 29 19 32 19 3 0 6
-868 6 -1930 0 -1280 3 -1930 10 -1930 7 0 10 1032 10 3075 l0 3075 -2330 0
-2330 0 0 -3075z m4640 1940 c0 -619 -2 -1125 -5 -1125 -17 0 -111 102 -131
142 -26 52 -59 189 -68 290 -10 102 -44 168 -81 154 -9 -3 -15 -18 -15 -39 0
-28 -11 -46 -57 -96 -64 -67 -162 -131 -202 -131 -21 0 -12 8 39 35 71 39 130
91 130 115 0 9 13 37 30 63 45 72 72 128 64 135 -4 4 -9 1 -11 -5 -10 -27 -23
-11 -23 28 0 35 -3 40 -19 34 -15 -4 -19 1 -24 34 -6 46 -50 151 -88 206 -40
60 -204 225 -223 225 -14 0 -16 -6 -9 -37 4 -21 8 -83 8 -138 -1 -232 -102
-354 -259 -314 l-46 11 25 30 c27 32 32 76 13 111 -6 12 -32 49 -58 82 -26 33
-52 70 -58 82 -16 29 -15 83 1 84 30 3 45 -6 98 -58 42 -41 62 -54 80 -51 35
5 29 43 -21 122 -90 142 -228 209 -295 141 -22 -21 -25 -33 -25 -92 0 -80 32
-158 99 -238 52 -63 53 -91 5 -111 -32 -13 -41 -13 -91 1 -47 14 -56 21 -70
53 -14 33 -13 50 11 222 33 238 33 264 1 296 -29 29 -94 32 -86 4 17 -60 10
-290 -9 -290 -5 0 -13 23 -19 50 -15 71 -66 198 -101 253 -33 53 -66 73 -104
63 -20 -5 -26 -14 -32 -51 -3 -26 -1 -64 5 -88 40 -148 57 -314 39 -382 l-13
-50 -65 2 c-36 2 -79 5 -97 8 l-32 6 38 38 c117 117 118 396 1 494 -96 81
-199 17 -252 -157 -35 -115 -8 -261 61 -333 11 -12 21 -25 21 -28 0 -3 -27 -5
-61 -5 -59 0 -61 1 -55 23 4 18 -3 31 -29 57 -53 51 -60 84 -45 217 10 90 10
116 0 128 -19 23 -55 18 -68 -10 -22 -48 -44 -199 -38 -258 7 -65 17 -90 54
-129 l26 -28 -68 0 c-61 0 -67 2 -60 18 20 40 7 126 -35 236 -55 143 -68 234
-54 366 12 110 22 130 62 130 46 0 144 30 184 56 26 17 37 32 37 49 0 35 -34
49 -113 47 l-68 -1 7 35 c5 26 2 40 -11 54 -37 41 -96 12 -126 -63 -7 -17 -13
-33 -14 -35 -1 -1 -28 -7 -61 -13 -102 -18 -174 -74 -174 -135 l0 -27 91 7 92
7 -7 -33 c-15 -72 -18 -228 -7 -304 12 -85 67 -273 101 -351 11 -25 19 -47 18
-49 -2 -1 -28 -5 -59 -9 -54 -7 -57 -6 -82 25 -50 59 -54 95 -22 226 29 121
28 145 -9 152 -26 5 -43 -14 -61 -68 l-16 -49 -49 6 c-58 7 -98 -14 -159 -83
-87 -99 -94 -257 -14 -306 l27 -16 -39 -16 c-59 -25 -68 -19 -82 48 -18 95
-27 305 -14 353 13 49 59 99 98 108 16 3 39 14 53 25 20 16 23 22 14 37 -15
25 -55 28 -112 8 -72 -24 -122 -77 -137 -143 l-7 -33 -33 21 -34 21 -20 -20
c-27 -27 -27 -31 9 -76 17 -21 37 -61 46 -89 21 -69 37 -337 21 -352 -14 -13
-107 -68 -107 -62 0 1 11 30 25 63 29 71 33 160 9 211 -19 39 -70 74 -108 74
-37 0 -96 -26 -128 -57 -15 -15 -30 -24 -33 -21 -3 3 22 70 56 149 92 217 103
275 57 300 -43 23 -65 4 -119 -102 -164 -328 -230 -589 -184 -730 10 -30 27
-67 37 -82 24 -34 20 -47 -26 -82 -35 -27 -37 -27 -56 -10 -34 31 -60 98 -60
156 0 30 14 107 30 173 17 65 30 126 30 136 0 30 -29 51 -64 48 -27 -3 -33 -9
-53 -58 -45 -114 -67 -221 -68 -325 0 -112 10 -139 71 -199 20 -19 33 -39 30
-45 -15 -24 -200 -171 -207 -164 -20 22 -43 187 -43 313 -1 151 12 233 57 360
77 222 171 345 386 509 112 86 149 139 190 276 21 69 42 211 33 220 -3 2 -48
-35 -101 -83 -108 -98 -210 -187 -323 -278 -182 -149 -331 -491 -368 -844 -8
-80 -7 -150 3 -295 8 -104 12 -192 11 -194 -11 -14 -131 156 -163 232 -29 69
-45 174 -45 312 -1 155 15 216 74 290 94 119 120 182 120 294 0 55 -4 71 -25
96 l-24 30 -1 -54 c0 -66 -22 -112 -103 -218 -73 -95 -129 -211 -154 -318 -27
-119 -24 -339 6 -460 41 -163 120 -294 229 -375 l32 -25 -28 -80 c-15 -45 -50
-117 -78 -160 -28 -44 -63 -102 -78 -130 -61 -108 -318 -535 -322 -535 -2 0
-4 745 -4 1655 l0 1655 2305 0 2305 0 0 -1125z m-1847 214 c40 -18 70 -83 75
-163 8 -125 -26 -196 -94 -196 -65 0 -108 74 -108 185 0 71 16 123 49 159 26
29 42 32 78 15z m330 -53 c27 -41 66 -208 73 -313 8 -123 5 -134 -33 -124 -22
6 -27 13 -25 32 14 110 13 171 -3 225 -24 82 -44 166 -45 187 0 24 15 21 33
-7z m-1111 -163 c44 -40 8 -185 -56 -224 -41 -25 -52 -24 -81 6 -45 44 -29
139 34 203 36 36 74 42 103 15z m868 -251 c10 -4 -81 -7 -203 -8 -177 0 -246
-5 -342 -22 -177 -30 -250 -48 -350 -86 -49 -18 -124 -46 -165 -61 -280 -103
-501 -249 -874 -579 -111 -99 -251 -269 -313 -380 -66 -120 -153 -251 -237
-356 -34 -42 -83 -109 -111 -148 -27 -39 -53 -72 -58 -72 -8 0 127 265 176
345 216 353 357 519 597 707 25 19 75 65 113 101 37 37 72 67 77 67 6 0 45 24
88 54 279 193 487 297 722 359 231 62 298 75 490 91 65 6 367 -4 390 -12z
m-1461 -28 c32 -40 29 -117 -7 -185 -66 -126 -178 -132 -190 -11 -6 68 18 132
69 183 49 49 96 54 128 13z"/>
<path d="M1023 4955 c-25 -18 -58 -114 -50 -147 9 -33 57 -56 73 -34 16 23 47
143 41 160 -10 26 -42 37 -64 21z"/>
<path d="M1025 3401 c-44 -16 -108 -40 -142 -53 -69 -25 -98 -19 -98 21 0 11
-4 21 -8 21 -4 0 -11 0 -17 0 -5 0 -14 -9 -20 -21 -9 -16 -8 -26 5 -45 13 -21
23 -24 71 -24 l55 0 -3 -424 c-3 -401 -4 -425 -22 -445 -25 -27 -62 -27 -77 1
-10 19 -12 19 -21 5 -11 -21 5 -53 32 -62 53 -17 110 23 147 104 15 31 18 90
23 421 6 422 4 410 67 456 95 70 217 54 283 -37 46 -64 65 -132 64 -234 0
-201 -99 -365 -218 -365 -57 0 -86 22 -86 65 0 19 5 37 10 40 18 11 11 25 -12
25 -31 0 -45 -11 -57 -43 -13 -34 -1 -68 35 -96 36 -28 124 -29 189 -1 98 42
198 179 226 310 16 75 7 187 -20 242 -73 152 -226 204 -406 139z"/>
<path d="M2791 3297 c-43 -45 -50 -56 -38 -63 17 -10 29 -57 20 -80 -3 -9 -20
-14 -45 -14 -52 0 -46 -23 8 -30 l39 -5 5 -241 5 -241 28 -36 c33 -43 46 -45
76 -14 20 22 20 25 6 37 -41 34 -45 62 -45 284 l0 215 42 3 c57 4 62 26 6 30
l-43 3 -5 103 -5 103 -54 -54z"/>
<path d="M2329 3132 c-63 -33 -121 -103 -145 -176 -32 -94 -7 -229 56 -307
l21 -26 -33 -60 c-28 -52 -31 -65 -23 -89 12 -35 45 -43 71 -17 17 17 17 18
-2 21 -10 2 -23 8 -28 12 -11 11 1 60 24 90 l18 25 44 -25 c37 -22 56 -25 133
-25 86 0 93 2 144 34 58 38 111 105 94 122 -7 7 -15 2 -27 -16 -9 -14 -35 -37
-58 -52 -35 -24 -51 -27 -112 -27 -68 0 -143 25 -160 53 -11 17 184 287 283
394 38 41 41 47 22 47 -12 0 -48 11 -81 25 -85 36 -169 35 -241 -3z m188 -34
c39 -37 26 -71 -88 -236 -56 -81 -106 -151 -110 -156 -12 -14 -38 12 -67 68
-62 123 -13 289 103 343 44 20 131 10 162 -19z"/>
<path d="M3218 3140 c-20 -11 -49 -36 -64 -56 -25 -32 -28 -34 -37 -17 -17 32
-70 83 -87 83 -9 0 -27 -11 -39 -24 l-22 -24 34 -21 c53 -32 57 -52 57 -265 0
-180 -1 -195 -21 -220 l-20 -26 75 0 c42 0 76 3 76 8 0 4 -9 15 -20 25 -19 16
-20 29 -20 204 0 180 1 188 25 229 30 51 80 84 128 84 34 0 67 -20 67 -41 0
-21 -21 -49 -38 -49 -15 -1 -15 -3 3 -16 24 -19 72 -11 91 14 14 18 18 60 8
87 -18 45 -130 59 -196 25z"/>
<path d="M1695 3138 c-48 -18 -103 -66 -133 -116 -24 -42 -27 -57 -27 -137 0
-79 4 -97 28 -143 35 -67 92 -124 159 -159 46 -24 64 -28 143 -28 85 0 93 2
136 32 90 63 131 158 111 263 -23 125 -85 211 -189 262 -73 36 -172 47 -228
26z m151 -73 c27 -13 73 -48 102 -77 67 -66 104 -143 110 -228 4 -60 2 -68
-22 -97 -35 -42 -84 -57 -162 -50 -140 11 -267 150 -281 307 -11 117 33 170
143 170 44 0 73 -7 110 -25z"/>
<path d="M3565 3124 c-27 -13 -58 -23 -67 -23 -17 -1 -26 -21 -10 -21 5 0 17
-6 27 -14 18 -13 18 -16 -18 -87 -49 -96 -65 -179 -48 -253 23 -103 91 -164
193 -174 56 -5 124 24 162 69 14 16 28 29 32 29 3 0 4 -42 2 -92 -7 -147 -57
-218 -155 -218 -33 0 -45 5 -53 21 -7 11 -9 27 -6 35 8 21 -37 18 -57 -4 -54
-59 40 -109 152 -82 70 17 143 83 169 153 17 46 20 87 24 346 4 261 6 294 21
303 34 18 16 28 -53 28 -65 0 -90 -10 -55 -24 13 -4 15 -37 15 -206 0 -124 -4
-209 -11 -221 -6 -11 -31 -34 -57 -50 -131 -83 -262 9 -262 185 0 108 38 219
97 288 27 30 9 35 -42 12z"/>
<path d="M1451 2870 c-71 -109 -121 -269 -121 -383 0 -160 149 -268 307 -222
125 37 255 122 338 223 30 36 55 69 55 73 0 5 -22 -4 -50 -18 -135 -70 -335
-21 -421 103 -44 64 -61 119 -62 207 -1 42 -3 77 -5 77 -1 0 -20 -27 -41 -60z
m203 -350 c71 -35 164 -54 218 -46 21 4 38 3 38 -2 0 -23 -112 -103 -228 -162
-71 -36 -156 -42 -191 -12 -20 16 -20 20 -8 67 8 28 22 66 32 85 20 38 64 100
72 100 3 0 33 -13 67 -30z"/>
<path d="M1320 2313 c-17 -65 -56 -142 -88 -176 -31 -33 -66 -54 -142 -84 -64
-25 -67 -38 -24 -110 32 -56 91 -99 153 -112 46 -10 121 -5 121 8 0 3 1 49 3
102 2 85 5 100 29 137 15 23 57 65 93 94 l65 52 -44 11 c-59 15 -91 37 -122
85 -15 22 -28 40 -29 40 -1 0 -8 -21 -15 -47z"/>
<path d="M3845 1995 c-38 -25 -69 -51 -69 -59 1 -8 48 -85 104 -173 57 -87
139 -214 183 -283 44 -69 84 -129 88 -134 7 -8 229 125 250 150 7 9 0 28 -27
68 -20 31 -40 56 -43 56 -3 0 -21 -9 -39 -20 -18 -11 -39 -20 -46 -20 -12 0
-117 154 -271 397 -22 35 -44 63 -50 63 -5 0 -41 -21 -80 -45z"/>
<path d="M3478 1784 c-60 -30 -108 -60 -108 -68 0 -8 35 -110 79 -228 43 -117
96 -262 117 -322 21 -60 44 -110 50 -113 14 -5 149 61 160 78 3 6 -2 36 -12
66 -16 47 -17 55 -4 63 27 17 38 11 69 -40 l31 -50 79 40 c44 22 82 44 86 50
3 5 -33 63 -81 127 -164 222 -229 311 -278 382 -27 39 -56 71 -65 70 -9 0 -64
-25 -123 -55z"/>
<path d="M3155 1630 c-40 -16 -71 -35 -73 -44 -2 -9 18 -89 43 -177 26 -88 45
-162 43 -165 -3 -2 -38 61 -79 141 -102 199 -84 183 -173 151 -123 -45 -120
-35 -41 -172 151 -263 249 -431 271 -466 l24 -38 80 30 c140 51 180 71 180 89
0 9 -8 48 -19 86 -10 39 -47 188 -82 333 -72 299 -57 279 -174 232z"/>
<path d="M837 1633 c-5 -8 -22 -50 -182 -451 -42 -106 -75 -199 -72 -206 5
-13 135 -66 161 -66 7 0 34 55 61 123 26 67 52 126 56 132 8 8 25 4 96 -22 12
-5 63 95 63 122 0 6 -18 18 -40 25 -22 7 -44 18 -49 24 -11 14 26 106 43 106
6 0 33 -8 59 -17 42 -15 49 -15 58 -3 14 23 43 119 37 125 -6 6 -231 99 -265
109 -12 4 -24 3 -26 -1z"/>
<path d="M1216 1492 c-11 -18 -177 -666 -174 -680 3 -15 282 -96 304 -88 10 4
50 133 43 141 -2 2 -29 10 -59 17 -64 17 -68 25 -46 102 l16 54 45 -10 c25 -5
52 -8 59 -5 14 5 41 111 32 126 -3 5 -26 14 -52 20 -46 12 -46 12 -39 47 12
69 23 87 48 80 12 -3 38 -9 58 -12 l36 -6 18 67 c15 53 16 68 6 75 -8 4 -70
22 -140 40 -69 18 -131 35 -137 37 -7 2 -15 0 -18 -5z"/>
<path d="M2623 1448 c-40 -11 -73 -24 -73 -30 0 -9 54 -217 145 -556 19 -68
35 -126 38 -128 2 -3 43 5 91 18 67 18 86 27 86 41 0 15 -111 453 -157 620
-19 66 -19 66 -130 35z"/>
<path d="M1715 1391 c-95 -24 -135 -88 -135 -215 0 -77 22 -113 124 -202 72
-62 81 -75 84 -109 5 -60 -5 -87 -31 -83 -20 3 -22 8 -22 73 0 69 0 70 -30 76
-16 4 -55 7 -86 8 -64 1 -69 -5 -69 -89 0 -119 51 -178 176 -201 39 -7 71 -7
109 1 101 21 135 69 142 200 6 114 -14 153 -119 235 -83 65 -104 97 -93 144
14 65 57 40 53 -30 l-3 -44 77 -9 c109 -12 111 -10 106 74 -4 82 -24 114 -89
147 -48 24 -146 36 -194 24z"/>
<path d="M2236 1379 c-88 -11 -161 -21 -164 -24 -2 -2 -1 -35 4 -72 l9 -68 55
0 54 0 31 -277 c16 -152 32 -279 35 -281 7 -7 173 13 182 22 4 4 -6 130 -23
280 -16 150 -28 275 -25 278 2 3 24 7 48 10 24 3 46 10 49 16 6 9 3 67 -7 115
-5 27 -23 27 -248 1z"/>
</g>
</svg>
